<?xml version="1.0" standalone="no"?>
<!DOCTYPE svg PUBLIC "-//W3C//DTD SVG 20010904//EN"
 "http://www.w3.org/TR/2001/REC-SVG-20010904/DTD/svg10.dtd">
<svg version="1.0" xmlns="http://www.w3.org/2000/svg"
 width="168.000000pt" height="162.000000pt" viewBox="0 0 168.000000 162.000000"
 preserveAspectRatio="xMidYMid meet">
<metadata>
Created by potrace 1.16, written by Peter Selinger 2001-2019
</metadata>
<g transform="translate(0.000000,162.000000) scale(0.100000,-0.100000)"
fill="#000000" stroke="none">
<path d="M1000 1501 c0 -4 -27 -11 -60 -15 -33 -4 -60 -11 -60 -15 0 -5 -12
-12 -26 -15 -29 -8 -32 -10 -120 -90 -35 -32 -64 -65 -64 -72 0 -8 -4 -14 -10
-14 -5 0 -12 -11 -16 -25 -3 -14 -10 -25 -15 -25 -4 0 -11 -17 -15 -37 -4 -21
-12 -41 -18 -45 -8 -5 -11 -100 -11 -310 l0 -303 208 -3 207 -2 0 -25 c0 -14
-4 -25 -10 -25 -5 0 -10 -10 -10 -21 0 -26 -40 -109 -52 -109 -4 0 -8 -6 -8
-13 0 -16 -72 -87 -88 -87 -7 0 -12 -4 -12 -10 0 -5 -11 -12 -25 -16 -14 -3
-25 -10 -25 -15 0 -4 -22 -11 -50 -15 -27 -4 -50 -10 -50 -15 0 -5 -27 -9 -60
-9 -33 0 -60 4 -60 9 0 5 -22 11 -50 15 -27 4 -50 11 -50 15 0 5 -11 12 -25
15 -28 7 -145 122 -145 142 0 8 -4 14 -9 14 -5 0 -13 15 -16 32 -4 18 -12 36
-18 40 -14 8 -14 207 0 216 6 4 14 22 18 40 3 17 11 32 16 32 5 0 9 7 9 15 0
35 153 165 194 165 9 0 16 5 16 10 0 6 9 10 20 10 17 0 20 7 20 50 l0 51 -37
-7 c-21 -4 -40 -10 -43 -14 -3 -4 -20 -11 -37 -15 -18 -3 -33 -11 -33 -16 0
-5 -6 -9 -13 -9 -18 0 -89 -60 -137 -116 -30 -34 -70 -108 -70 -128 0 -8 -6
-16 -12 -18 -17 -6 -18 -295 -2 -306 6 -4 15 -22 19 -40 3 -17 10 -32 15 -32
4 0 11 -12 15 -27 3 -15 35 -54 70 -87 84 -80 89 -84 119 -92 14 -3 26 -10 26
-14 0 -5 20 -12 45 -16 25 -3 45 -10 45 -15 0 -5 50 -9 110 -9 61 0 110 4 110
9 0 4 19 11 42 14 24 3 44 11 46 16 2 6 12 11 21 11 10 0 28 9 41 20 13 11 27
20 32 20 12 0 98 86 98 98 0 5 9 19 20 32 11 13 20 29 20 37 0 7 4 13 9 13 5
0 12 17 16 37 4 21 12 41 18 45 9 5 13 94 16 308 l3 300 -211 0 -211 0 0 30
c0 17 4 30 9 30 5 0 12 20 15 45 4 25 11 45 16 45 5 0 12 10 15 23 12 38 145
157 176 157 10 0 19 6 22 13 5 16 264 17 275 1 4 -6 18 -15 32 -19 13 -4 29
-13 36 -19 6 -6 24 -20 39 -31 42 -30 106 -122 112 -161 3 -18 10 -34 14 -34
5 0 9 -47 9 -105 0 -58 -4 -105 -9 -105 -5 0 -12 -16 -15 -35 -4 -19 -10 -35
-14 -35 -4 0 -16 -16 -27 -36 -26 -49 -92 -105 -160 -138 -22 -10 -47 -22 -55
-26 -9 -4 -16 -24 -18 -50 l-3 -43 47 7 c26 3 50 10 53 15 4 4 19 11 35 15 15
4 34 12 42 19 31 28 44 37 50 37 11 0 69 63 77 83 3 9 11 17 17 17 5 0 10 6
10 14 0 8 6 21 14 28 7 8 17 30 21 49 4 19 13 37 19 41 7 5 11 55 11 148 0 93
-4 143 -11 148 -6 4 -15 22 -19 41 -4 19 -13 40 -19 47 -6 7 -26 34 -45 61
-33 47 -109 113 -131 113 -5 0 -10 4 -10 9 0 5 -12 12 -27 16 -15 3 -30 11
-34 16 -3 5 -29 12 -57 16 -29 3 -52 10 -52 14 0 5 -31 9 -70 9 -38 0 -70 -4
-70 -9z m0 -708 l0 -158 -160 0 -160 0 0 158 0 157 160 0 160 0 0 -157z"/>
</g>
</svg>
